<svg xmlns="http://www.w3.org/2000/svg" viewBox="0 0 400.88 84.47"><path d="M97.25 41.79h7.2v26h-7.2zM120.45 41.79h7.2v26h-7.2zM89.69 32.51h44.8v6h-44.8zM134.51 28.94l-22.4-14.8-22.4 14.8zM20.12 39a18.26 18.26 0 00-7.18-1.51c-2.43 0-5.56 1.06-5.56 4.9 0 6.12 15.47 3.54 15.47 15.37 0 7.73-6.12 10.66-13.25 10.66-3.84 0-5.56-.5-9.05-1.36l.66-6.37a17.04 17.04 0 007.99 2.17c2.68 0 6.27-1.36 6.27-4.54C15.47 51.59 0 54.37 0 42.69c0-7.88 6.12-10.76 12.33-10.76 3.04 0 5.87.4 8.45 1.26l-.66 5.82zM34.77 38.1H24.66v-5.56h27.3v5.56H41.83v29.72h-7.08V38.1zM55.95 32.53h7.07V52.9c0 6.02 1.92 9.96 7.33 9.96s7.33-3.94 7.33-9.95V32.53h7.08v22.55c0 9.45-5.36 13.35-14.4 13.35s-14.41-3.9-14.41-13.35V32.53zM167.44 39.36a23.08 23.08 0 00-9.1-1.87c-8.23 0-12.78 5.56-12.78 12.79 0 7.18 4.45 12.58 11.98 12.58 1.92 0 3.44-.2 4.65-.5v-9.2h-7.48V47.6h14.25v19c-3.74 1.02-7.63 1.82-11.42 1.82-11.43 0-19.36-5.7-19.36-17.64 0-12.08 7.38-18.85 19.36-18.85 4.1 0 7.33.55 10.36 1.46l-.46 5.97zM186.78 32.53h7.99l13.85 35.29h-7.84l-3.03-8.1h-14.3l-3.09 8.1h-7.33l13.75-35.29zm3.9 7.08h-.1l-5.11 14.56h10.3l-5.1-14.56zM213.97 32.53h7.63c7.58 0 16.63-.25 16.63 9.56a8.07 8.07 0 01-7.28 8.19v.1c1.92.15 3.04 2.07 3.74 3.64l5.66 13.8h-7.88l-4.25-11.02c-1-2.63-1.92-3.64-4.9-3.64h-2.28v14.66h-7.07V32.53zm7.07 15.07h2.33c3.49 0 7.48-.5 7.48-4.9 0-4.25-3.94-4.6-7.48-4.6h-2.33v9.5zM251.84 38.03h-10.16v-5.6h27.43v5.6h-10.16V67.9h-7.11V38.03z"></path><g><path d="M372.53 50.06l-.08.03h.11z"></path><path d="M400.83 29.65c.19-.4-.19-.72-.32-1.01-.46-.51-.99-.83-1.44-1.26-.38.03-.49-.3-.75-.35 0 .03.02.08-.03.1.3.2.62.46.91.7.13.32.43.35.48.62.08.18.19.48.03.66-.08-.05-.27-.02-.27-.16-.4-.02-.64-.13-1.02 0-.21.16-.32.51-.26.78-.03.35.4.43.26.8 0 .1-.16.16-.1.21-.2.16-.54.08-.8.06-.06-.19-.35-.1-.54-.16-.05-.06.08-.03 0-.08-.61-.13-1.23-.4-1.87-.59l.05-.05c-.42 0-.82-.2-1.23-.3a9.7 9.7 0 00-2.16-.02c-.37.08-.8.21-1.1.48-.69.66-1.1 1.5-1.55 2.24-.18.03-.1.35-.32.27.11-.43.54-.83.54-1.31.05-.3-.1-.7-.24-.88-.4-.3-.67-.8-1.04-1.13-.35-.16-.67-.4-1-.58l.06-.03c-.08-.05-.18-.08-.27-.03-.02.2.27.06.25.24.08 0 .13.06.2.06.38.43.73.72 1.08 1.15-.1.08.1.18.05.24.1.45-.05.85-.37 1.14-.3.3-.67.51-.97.83-1.06 1.29-.45 2.94-.02 4.33.4 1.18 1.07 2.43 1.01 3.6-.16.73.03 1.56-.53 2.17-.27.03-.27.3-.48.3l.05.05c-.16.08-.5 0-.48.19l-1.36.02c-.37-.18-.61-.24-.99-.4l.06-.02c-.7-.43-1.23-.97-1.77-1.4l.03-.02c-.35-.27-.64-.59-.99-.8l.03-.03-.27-.1.02-.03c-.5-.19-.9-.7-1.5-.83l-.68-.1h.02c-.75-.06-1.55-.38-2.27-.49h.03c-.19-.12-.44-.08-.62-.16l.06-.02c-.16-.1-.4-.06-.6-.14.03-.02.06-.02.09-.02-.16-.06-.32-.1-.51-.14h.02c-.4-.07-.49-.32-.93-.32l.03-.02c-.56-.24-1.12-.4-1.63-.62l.02-.05c-.1-.05-.26 0-.37-.13l.03-.03c-.27-.03-.46-.27-.67-.27l.05-.05c-.48-.16-.96-.5-1.3-.75l.02-.03-.21-.13.02-.03c-.08-.1-.32-.02-.27-.18h.03c-.27-.14-.43-.3-.67-.4.03-.03 0-.08.03-.11-.38-.35-.86-.56-1.15-.96-.1-.43.05-.99.35-1.29.24-.18.45-.45.7-.56l-.03-.02c.42-.06.61-.24 1.04-.3v-.02l.21-.08c.08-.19-.21-.06-.16-.24-.35-.2-.64-.27-1.01-.4v-.03l-.35-.16c.02-.08-.14-.13-.1-.21.1-.08.26-.06.37-.03.34.19.74.32 1.12.35.5-.14.93-.03 1.39-.19.27.16.75.16 1.04.08.16-.05-.08-.13-.08-.21-.21-.11-.4-.3-.61-.43l.02-.03c-.35-.24-.77-.16-1.12-.24 0 0 0-.03.03-.03-.14-.1-.35-.05-.51-.13-.03-.1-.35-.27-.48-.32.08-.1-.22-.05-.14-.24.08-.08.24-.05.35-.03.22.14.59.16.88.24.24-.16.67-.02.83-.24.75-.05 1.58.06 2.27-.08.1-.2-.24-.29-.35-.37-.13-.03-.32 0-.4-.1l.03-.03c-.24-.08-.45-.19-.67-.3l.04-.03c-.57-.01-1.1-.26-1.64-.23-.16-.1-.4-.3-.59-.48.03-.08-.05-.1.05-.14.27-.02.6.03.83-.05l.06-.1c.37-.06.8 0 1.12-.14-.14-.08-.27-.22-.43-.24.03-.03.03-.03.03-.06-.4.03-.64-.2-1.02-.2-.02-.2-.37-.09-.4-.36.16-.18.62-.08.91-.08 0 .03-.13 0-.03.03.51.1.94.08 1.4-.16.07-.1.34-.05.34-.21.75-.16 1.42.4 2.11.08-.03 0-.05 0-.05-.03l.24-.1c.05-.11 0-.11 0-.25-.59 0-1.2-.64-1.71-.5-.46-.25-1.1-.06-1.6-.2 0-.15-.43-.07-.6-.18l.06-.05c-.3-.03-.5-.22-.7-.38.51-.08 1.1.06 1.66-.02.48-.16.94-.25 1.36-.43.67-.03 1.26.02 1.95-.06-.05-.16.2-.08.27-.16-.08-.08.16-.08.08-.2-.27-.04-.59-.2-.83-.25l.03-.03c-.3-.1-.53-.32-.8-.29l.02-.03c-.69.03-1.41.11-2.08.06-.43-.16-.85-.4-1.23-.67.16-.16.24-.24.4-.32.06-.27-.35-.16-.37-.38.53-.13 1.01-.2 1.52-.4 0-.13.32-.16.27-.24.48-.16 1.07.03 1.5-.16.4-.02.58-.13.88-.37.02-.4-.54-.19-.8-.3a3.38 3.38 0 00-1.9-.42c-.48.21-1.1.13-1.66.1-.21-.2-.53-.1-.75-.32.06-.13.27-.18.3-.26.48-.24.99-.32 1.41-.51-.02-.03-.18-.13-.1-.1-.32-.17-.62-.17-.91-.3-.5-.08-1.1-.03-1.6-.1l.02-.03-.37-.11c.02-.1.21 0 .26-.1 0 0-.05.02-.05 0 .32-.09.7-.09 1.04-.11.67-.2 1.2-.7 1.82-.73.37.2.72-.05 1.1-.05.05-.13.29-.24.26-.43h-.7c-.07-.21-.45-.08-.63-.18 0-.03.02-.03.05-.03-.16-.16-.45 0-.5-.21l-.76-.08s.03-.03.06-.03c-1.31-.3-2.62-.05-3.9-.1 0-.14.19-.17.21-.25.43-.24.88-.3 1.34-.45l-.03-.03.38-.1-.08-.06.26-.1c.06-.09.16-.27.2-.38-.04-.03-.09 0-.12-.03-.08.06-.08.08-.08.14-.34-.08-.66-.16-1.01-.16-.06-.19-.4-.06-.48-.24-.72-.14-1.55.02-2.22-.03.4-.35 1.02-.37 1.31-.77-.7.08-1.47-.03-2.24-.1.02-.04.05-.04.08-.04-.2 0-.4-.1-.6.06-.05.77-.31 1.41-.4 2.22.11 0 .17.05.25.08-.06.02 0 .02-.06.05.27-.03.24.24.46.27l.99.9c.32.46.72.91 1.04 1.4.45.66.77 1.33 1.1 2.08.88 2.08.6 4.7.23 7.05-.26 1.63-.77 3.18-1.2 4.79-.08.02-.13.1-.21.05.05-.24-.27-.27-.22-.48-.42-.37.03-.96.08-1.42.65-2.37 1.5-5.1 1.13-7.48-.06-.21.02-.4-.03-.53-.27-1.15-.48-2.11-1.07-3.1-.32-.8-1.01-1.36-1.41-2.03-.35-.22-.54-.5-.83-.78-.32-.02-.43-.37-.72-.42.02 0 .02-.03.05-.03-.27-.16-.59-.32-.86-.5.03-.11.2-.06.27-.06.43-.06.35-.54.56-.8.08-1 .4-2.11.38-3.02-.35.7-.54 1.68-1.26 2.13-.19.32-.5.3-.67.51l.03.03c-.21.05-.27.21-.5.3-.25.23-.17.71-.54.69-.22-.2.05-.64.1-.89.16-.37.62-.34.91-.58v-.03l.35-.13c.05-.06.08-.1.1-.19l-.74-.1s.03-.03.05-.03a4.62 4.62 0 00-1.23-.03c.03.08-.08.08-.1.08-.48.24-.51.9-.6 1.26-.37.08-.74.29-1.14.45l.03.03c-.3.02-.4.24-.7.26l.03.03-.4.13c.02 0 .05 0 .05.03-.56.27-1.07.5-1.57.75l.02.02-.4.14.03.02-.3.14.03.03c-.32.13-.67.24-.88.45l.02.03-.32.1.03.03c-.35.19-.83.45-1.1.64-.48.27-.96.32-1.44.45l.03.03c-.3-.05-.35.27-.62.3-.1.13-.29.31-.34.5-.59.67.02 1.45-.27 2.11-.03.27.4.11.48.24.64.11 1.26 0 1.9.11 0 0-.03.03-.06.03l.62.02c.21.06.1.2.13.32-.59.24-1.07.54-1.63.75.03 0 .05 0 .08.03-.21.08-.4.13-.59.21-.1.19.27.13.2.3.23.08.15.16.4.24-.04 0-.04.02-.06.02.05.1.18.06.3.14-.03.02-.06.02-.09.02.08.08.27.03.3.19.42.19.9.1 1.36-.03-.03-.13.13-.08.21-.13l-.02-.03c.18-.1.26-.26.5-.32l-.02-.02.93-.6c.56-.23 1.2-.26 1.77-.4.29.22.58.54.88.73.4-.03.48.21.88.16.5-.08 1.07-.21 1.52-.48l-.02-.03c.29-.08.4-.37.66-.43l-.02-.02c.32-.22.4-.67.77-.7.14.2-.08.4-.19.54-.13.21-.37.43-.56.7-.32.29-.56.37-.83.58-.32 0-.45.3-.77.3.03 0 .08 0 .08.02-.24.08-.56.03-.77.16-.24.03-.4.08-.51.27-.48.53-1.12.99-1.52 1.57-1.26 1.37-2.09 3.02-3.1 4.6-.16.21-.4.4-.65.62-.24.34-.56.61-.8.98-.35.32-.45.83-.67 1.29-.29-.2-.56-.48-.88-.65l.06-.02c-.2-.1-.35-.22-.48-.3h.02l-.24-.16.03-.02c-.3-.03-.14-.19-.43-.27a20.2 20.2 0 01-1.66-2.03c-.05-.37-.26-.7-.37-1.04-.1-.03-.21-.19-.21-.3-.28-.05-.23-.24-.5-.26-.66.34-1.51 0-2.04.66-.14.43-.43.75-.62 1.23-.42.59-1.14 1.12-1.5 1.74-.37.24-.45.5-.8.75l.03.02c-.32.27-.61.54-.93.8-.62.3-.65 1.13-.8 1.63.05.4.13.57.2 1 .22.74-.29 1.36-.66 1.86-.35.22-.75.4-1.12.4.05 0 .02.06.02.08.33 0 .62 0 .89.11.08.1.13.32.16.45-.14.4-.14 1.07-.24 1.53l.13.08c-.03.02-.05.05-.05.08.53.1 1.12.02 1.6-.03.05-.13.37-.08.48-.13.24-.14.56-.22.86-.32-.03-.16.34-.14.32-.27.45-.35.37-1.1.5-1.58l-1.68-.05c.08-.13-.1-.24 0-.38.37-.13.83-.24 1.26-.37.05-.32.08-.7.34-.88.16-.35.56-.48.86-.72.3-.1-.08-.4 0-.62-.14-.13-.16-.32-.24-.48-.24-.21-.38-.43-.67-.53-.03-.19.19-.32.27-.5.77-.76 1.57-1.37 2.24-2.15a.2.2 0 01.22-.05c.29-.08.21.16.42.24.24.43.67.72.86 1.07.3.53.7.96.8 1.5.37.64.32 1.28.56 1.94.05.14.16.22.19.35.3.22.83.46 1.23.6.4-.06.45.28.83.2.02-.58-.22-1.28-.03-1.97.1-.22.19-.51.32-.78.1-.08.16 0 .24.06-.3.88-.05 1.7.1 2.53-.05.32.17.51.2.8-.43.33-.86.11-1.32.11.06-.05.11-.02.16-.02-.48-.06-.88-.22-1.36-.3.03 0 .03-.03.06-.03-.8-.02-1.4-.66-2.17-.77l.05-.03c-.29-.05-.58-.16-.85 0 .03 0 .08-.02.08.03-.48.13-.61.83-.8 1.23-.59.75.16 1.42.19 2.14.05.34.21.7.21.98.1 1.34.13 2.73.32 4.04.1.3.43.48.5.77.25.03.4.27.65.27-.03.03-.03.03-.05.03.1.08.26.02.34.16h-.02c.24.05.35.24.59.3l-.03.02c.19.16.35.24.5.43.09.21.06.45.2.64.07.45.13.85.02 1.36.19.1.16-.19.3-.21l-.03-.03c.1-.13.3-.05.43-.05.24.32.56.53.85.82.08.14.19.27.27.43.1.03.32.08.4-.05l.32-.43c.45-1.1 1.15-2.48.4-3.58-.24-.16-.32-.43-.53-.53-.3.7-.62 1.1-.89 1.79a.97.97 0 01-.4-.08c.08-.65.4-1.26.67-1.82-.21 0-.43 0-.59-.1-.05-.11-.16-.22-.24-.33-.16-.64 0-1.15.16-1.9-.05-.05-.21.03-.18-.1l-.97-.1c.08-.03.16-.03.24-.03h-.61c.03 0 .08 0 .1.02-.29-.02-.56.16-.77.03-.16-1.02-.16-2.03-.19-3.02.62-.21 1.23.21 1.87.35-.02.02-.05.05-.08.05l.38.1-.06.06c.27.03.35.24.62.27l-.08.08c.13.03.27.03.37.08l-.08.08c.1.03.24.03.32.1l-.05.06c.24 0 .32.24.53.24l-.05.05.3.14-.06.05c.32-.05.27.27.56.24l-.05.08c.1.03.21.03.32.1-.03 0-.03.03-.06.03.43.22.89.4 1.29.67.42.1.88.27 1.33.46.32.02.75.13 1.04 0 .08-.2.27-.32.35-.48.56-.83.6-1.8.64-2.7.06.05.16-.08.22.02.24 1.1-.06 2.22-.1 3.32.29.02.29.3.58.3l-.05.04c.08.06.26.06.26.16l.32.14-.02.02.26.11-.08.08c.11.03.24.03.35.08-.08.03-.02.05-.02.08.1 0 .16.08.26.1l-.05.03c.3.24.64.24.88.48h-.02c.32.09.58.33.88.49h-.03l.37.13-.05.05.38.1-.06.06c.14.03.27.03.35.14h-.03c.08.08.24.08.35.1l-.03.11c.35-.1.38.27.73.24 0 0-.03.03-.06.03a9 9 0 001.69.58l-.03.06c.72.02 1.52.45 2.16.67.57-.03.8.24 1.34.24 0 0-.03.02-.03.05.62.1 1.18.21 1.77.27 0 .02-.1 0-.06.02.35.11.75.06 1.1.14l-.03.02c.94-.02 1.71.3 2.65.3l-.06.02.3.11c.1.83.13 1.58.24 2.38l.27.9c.3.25-.16.3-.03.54-.13-.05-.19-.27-.3-.35-.18-.37-.26-.64-.47-.96-.2-.5-.38-1.01-.46-1.52-.02-.38-.61-.16-.9-.27.05-.03.13-.03.18-.03l-1.58-.1c0-.02.03-.03.05-.03-.4-.1-.88-.08-1.25-.16.03-.02.06 0 .08 0a.82.82 0 00-.5-.08 11.3 11.3 0 001.38 3c.43.4.8.88 1.15 1.28.24-.03.14.24.35.21.21.48.8.75.99 1.28.03 1.18.19 2.11-.16 3.29-.88 1.07-1.55 2.4-2.49 3.29-.34.34-.77.53-1.14.88-.6.37-.91 1.12-1.42 1.57-.45.2-1.04.43-1.55.43-.03.14.16.16.16.27.03.83-.7 1.55-.77 2.38.21.02.4.24.66.16.54.21 1.26.1 1.87.08.3-.19.65.02.89-.22.58-.26.96-.85 1.14-1.47-.05-.02-.16-.05-.1-.08-.51 0-1.04-.18-1.5-.21-.05-.13 0-.35.05-.5.57-.14 1.34.18 1.77-.2l-.03-.02c.24-.19.38-.48.7-.54l-.03-.02c.5-.14 1.07-.38 1.55-.38v-.02l.4-.06c.05-.37.05-.93-.21-1.2-.06-.16-.27-.24-.22-.43.7-.88 1.34-1.95 2.22-2.61.32-.22.7-.3.96-.46.46-.3.94-.53 1.26-.85.05-.16.37-.48.21-.75-.1-.67-.24-1.36-.32-2.06.1-.02.22 0 .27.08-.03.03-.03.03-.05.03.37.1.64.48 1.01.61-.02 0-.02.03-.05.03.3.05.43.35.72.43l-.08.08c.13.02.24.02.37.08-.02.02-.05.02-.08.02.51.19.97.51 1.53.62-.03 0-.03.02-.06 0 .1.16.46.02.51.21.61.7 1.34 1.44 1.9 2.2.18.28-.03.5-.1.77a13.16 13.16 0 01-1.64 3.3c-.7.73-1.2 1.26-1.74 2.1-.13.13-.29.31-.5.42l.02.03a7.3 7.3 0 01-1.73.69c.13.1.24.32.21.48a4.63 4.63 0 01-.85 1.74c-.14.13-.11.24.02.32.3.08.54.16.86.21l-.03.03c.77.1 1.8.1 2.56 0 .78-.24 1.26-.86 1.47-1.66-.08-.03-.18-.03-.18-.08l-.94-.1.03-.03c-.24-.08-.59 0-.83-.1.1-.2.16-.4.32-.51.53 0 1.15-.03 1.58.02.29-.37.5-.72.88-1.04.3-.22.67-.38.99-.4l-.03-.03 1.02-.1c.16-.43.05-.89-.24-1.15-.06-.14-.22-.32-.33-.35-.1-.13-.18-.3-.16-.46.3-.8.65-1.52 1.02-2.35.56-1.17 1.74-1.87 1.95-3.2-.03-.38.19-.86-.24-1.04-.13-.2-.27-.3-.35-.4-.26 0-.16-.25-.4-.25-.27-.29-.53-.69-.77-.96-.38-.64-.8-1.1-1.12-1.68-.16-.1-.35-.24-.4-.35l-.03-.19c.61-1.22 1.47-2.37 2.03-3.55.56-1.26 1.39-3.05.64-4.57.1-.05.22-.05.24-.16h.43c.19.32.32.48.48.78.3.02.16.21.43.24l-.08.05.34.05c.06.08-.08.06 0 .11.14.03.27.03.4.1-.02 0-.02.03-.05.03l.4.14c-.02 0-.02.02-.05.02l.3.14-.06.02c.05.06.27.1.16.19.37.43 0 1.12-.19 1.63.35-.4.51-.99.86-1.33.08-.33.1-.62.1-.94.08-.03.14.03.19.1.05.27.3.33.37.51.38.1.78.03 1.18.08 0 .16.32.1.27.27h.18c.06-.3-.02-.59-.08-.85-.26-.4-.74-.67-.82-1.18-.2-.16-.35-.3-.48-.48.1-.08.29-.03.42.05l-.05.06c.1.02.24.02.35.1l-.06.03c.24.13.6.1.86.03.35-.03.4.26.75.21.1-.05.32-.03.3-.16l.87-.08c.08-.21-.13-.35-.19-.5h.03c-.27-.11-.53-.25-.75-.3-.13-.13-.26-.24-.37-.4-.1 0-.24-.03-.35-.05-.02-.08-.08-.2.03-.3.32-.08.7-.05.99.05 0 .11.24.08.32.25.5.16.74-.33 1.06-.38-.02 0-.05 0-.08-.03.11-.1.3-.02.43-.1-.1-.1-.08-.35-.3-.32-.07-.16-.37-.08-.53-.16l.06-.06-.35-.1c-.05-.16-.27-.3-.3-.38-.18-.08-.23-.24-.45-.26 0-.06.03-.06-.02-.11.21-.1.48-.03.7-.05.04-.2.31-.11.31-.22.32-.16.64-.27.94-.19.08.14.4.08.58.03l-.02-.03.27-.08c-.06-.16.13-.13.08-.26-.06 0-.16 0-.2-.11l.03-.03c-.37-.18-.72-.34-.98-.64-.62-.16-1.26.1-1.82-.05-.1-.16-.43-.14-.64-.19 0-.03.02-.03.05-.03-.35-.05-.7.08-.96.2h.03c-.2 0-.35.15-.51.04.19-.23.35-.45.61-.53.16-.16.48-.32.75-.37l-.03-.03c.6-.16 1.34.03 1.95-.13l-.02-.03.37-.1-.02-.03c.24-.08.32-.22.48-.35.37-.03.7.1 1.04.08.21-.16.53-.19.64-.43.19-.08.43-.05.61-.02.3.08.3-.22.57-.22 0-.1.13-.13.18-.24-.37-.16-.72-.45-1.12-.67-.19-.21-.59-.05-.9-.13 0-.21-.22-.03-.27-.19.32.06.58-.19.88-.19 0-.02.02-.05 0-.08.3-.18.59-.34.88-.32.21.03.67.38 1.01.24-.02-.16.2-.08.27-.16-.05-.08.1-.16.08-.24-.13-.02-.3-.02-.43-.08a6.53 6.53 0 00-.37-.29c0-.03-.03-.08 0-.1-.32.05-.24-.25-.53-.25h.01c-.3-.1-.59-.1-.92-.1a3.1 3.1 0 00-1.15-.67c.08-.3.43-.08.67-.1l-.06.02c.22.13.54.08.78.05.4-.16.7-.45 1.12-.4.1.22.48.03.56.24.4.08.83 0 1.1-.19.02-.1.21-.21.19-.32-.38-.02-.65-.16-.94-.29-.16-.21-.43-.3-.56-.53-.1-.08-.32.02-.35-.16l-1.6-.06c-.3-.16-.51-.35-.83-.35 0-.02.05-.02.08-.02-.13-.1-.4-.06-.56-.14l.08-.05c-.27-.08-.59-.03-.86-.1.14-.27.54-.27.72-.43.38-.03.78-.03 1.13 0 .24.24.72.05.96.24.61.08 1.15.05 1.79.02.13-.1.37-.18.53-.3.08-.12.11-.26.27-.34.16-.35.03-.93-.21-1.23-.06-.3-.48-.45-.4-.8.48-.08.88.35 1.33.13 0-.02-.05-.02-.05-.05l.27-.08c-.12-.1.04-.14.07-.19zm-47.7-9.3c-.1.06-.18.11-.2.14h-.54c.13-.1.24-.22.32-.4.05-.16-.14-.32-.19-.54-.13-.02-.27-.1-.45-.02-.03-.16.26-.03.24-.22.18-.02.42-.02.64 0h-.03c-.05.16.3.11.24.24.1.11.16.27.14.46.02.16-.09.21-.17.34zm5.7-2.4c-.22.1-.56.08-.8.03-.11-.2-.4-.32-.48-.54-.2-.13-.4-.08-.54-.1 0-.22.37-.06.35-.25.35-.05.67-.16 1.01-.26l-.05-.03h.24c-.03 0-.03 0-.05.03.18.08.3.16.4.26.1.3.08.6-.08.86zM377 38.73h0zM375.44 38.25h.03-.03zM373.13 28.5h.04-.04z"></path><path d="M347.37 28.4h.04c-.02-.03-.05 0-.05 0zM370.9 49.96c.1 0 .04-.01 0 0zM397.67 35.84l.03.01h-.03z"></path></g><path d="M303.81 0h1.42v84.47h-1.42z"></path></svg>